HIERARCHY
ROOT ui
{
	 OFFSET 0 0 0
	 CHANNELS 3 XPosition YPosition Z Position
	 EndSite
	 {
	 OFFSET 0 -1 0
	 }
}
ROOT li
{
	 OFFSET 0 0 0
	 CHANNELS 3 XPosition YPosition Z Position
	 EndSite
	 {
	 OFFSET 0 -1 0
	 }
}
ROOT ul
{
	 OFFSET 0 0 0
	 CHANNELS 3 XPosition YPosition Z Position
	 EndSite
	 {
	 OFFSET 0 -1 0
	 }
}
ROOT ll
{
	 OFFSET 0 0 0
	 CHANNELS 3 XPosition YPosition Z Position
	 EndSite
	 {
	 OFFSET 0 -1 0
	 }
}
ROOT tt
{
	 OFFSET 0 0 0
	 CHANNELS 3 XPosition YPosition Z Position
	 EndSite
	 {
	 OFFSET 0 -1 0
	 }
}
ROOT tb
{
	 OFFSET 0 0 0
	 CHANNELS 3 XPosition YPosition Z Position
	 EndSite
	 {
	 OFFSET 0 -1 0
	 }
}
ROOT td
{
	 OFFSET 0 0 0
	 CHANNELS 3 XPosition YPosition Z Position
	 EndSite
	 {
	 OFFSET 0 -1 0
	 }
}
ROOT v
{
	 OFFSET 0 0 0
	 CHANNELS 3 XPosition YPosition Z Position
	 EndSite
	 {
	 OFFSET 0 -1 0
	 }
}
ROOT bn
{
	 OFFSET 0 0 0
	 CHANNELS 3 XPosition YPosition Z Position
	 EndSite
	 {
	 OFFSET 0 -1 0
	 }
}
MOTION
Frames: 29
Frame Time: 0.002
-0.01039044189453125	-1.543930023908615E-4	0		0.5093409729003906	-2.376513671875	0		-1.10927734375	-0.068070068359375	0		-0.7280113525390625	-2.314770751953125	0		1.5727662353515626	-0.6680592041015625	0		3.253747314453125	-0.008034979820251465	0		4.77639013671875	0.12083754730224609	0		5.624146484375	0.2866234436035156	0		-0.44961383056640625	5.8604931640625	0		
0.01643814468383789	-0.008279973983764649	0		0.5607838745117187	-2.382033447265625	0		-1.076412841796875	-0.07207420349121094	0		-0.7315414428710938	-2.3184072265625	0		1.572575439453125	-0.6681388549804688	0		3.282658935546875	-0.009762297630310059	0		4.786326171875	0.11907072448730469	0		5.6211728515625	0.2732464904785156	0		-0.4486505126953125	5.86077099609375	0		
-0.008699353218078614	-0.007785291194915772	0		0.4922152404785156	-2.382108154296875	0		-1.1336328125	-0.07699223327636719	0		-0.7181417236328125	-2.322257568359375	0		1.5723187255859374	-0.6682274780273437	0		3.27761767578125	-0.0020943360328674315	0		4.77519775390625	0.11754557037353516	0		5.61684619140625	0.2841098937988281	0		-0.4336246337890625	5.870869140625	0		
0.06824231719970703	0.0014381959438323974	0		0.5466051635742187	-2.38369775390625	0		-1.0968370361328126	-0.07807285308837891	0		-0.7526597290039062	-2.316528076171875	0		1.538140625	-0.6589003295898438	0		3.2623310546875	-0.011301403999328613	0		4.79014111328125	0.12470117950439454	0		5.6238447265625	0.28252838134765623	0		-0.29951895141601564	5.89046923828125	0		
-0.0019792540073394777	-5.215809941291809E-4	0		0.5200502319335938	-2.380294189453125	0		-1.109900146484375	-0.06655451202392579	0		-0.7281820678710937	-2.311547119140625	0		1.5747603759765625	-0.6654591674804687	0		3.28621337890625	-0.005990396022796631	0		4.7799736328125	0.12418169403076172	0		5.62370068359375	0.2811907348632813	0		-0.29870703125	5.89068896484375	0		
0.0638279914855957	-0.0012085880041122436	0		0.5345266723632812	-2.376414794921875	0		-1.0741138916015625	-0.06767848968505859	0		-0.7307697143554688	-2.313247314453125	0		1.5714271240234374	-0.6685203857421875	0		3.28602490234375	-0.0063677978515625	0		4.785716796875	0.11648588562011719	0		5.62355859375	0.2799051208496094	0		-0.43217041015625	5.8736064453125	0		
-0.03936541748046875	-0.0017450809478759765	0		0.5319617919921875	-2.378328857421875	0		-1.0773387451171874	-0.07033361053466797	0		-0.69736669921875	-2.31843310546875	0		1.57114892578125	-0.6686188354492187	0		3.252799072265625	-0.010301442146301269	0		4.7796494140625	0.12297309875488281	0		5.62342529296875	0.278685302734375	0		-0.430474609375	5.87180126953125	0		
0.019442750930786134	-0.004383387088775635	0		0.5522526245117187	-2.394550537109375	0		-1.1345826416015625	-0.07530819702148438	0		-0.7558515014648437	-2.317448974609375	0		1.5319229736328126	-0.66620556640625	0		3.272413330078125	-0.02789645004272461	0		4.77950634765625	0.1224211196899414	0		5.62327587890625	0.27235391235351564	0		-0.42782723999023436	5.86996337890625	0		
-0.025603174209594726	0.0033194448947906495	0		0.5459854736328125	-2.38043212890625	0		-1.09065869140625	-0.06963014221191406	0		-0.7172841186523438	-2.316753662109375	0		1.5797962646484376	-0.658926513671875	0		3.28778125	0.010589527130126954	0		4.7842744140625	0.11384757995605468	0		5.62611474609375	0.2885110778808594	0		-0.2798107604980469	5.89918798828125	0		
0.025260486602783204	0.001740707039833069	0		0.5346707763671875	-2.37425244140625	0		-1.064774658203125	-0.06875240325927734	0		-0.7305912475585937	-2.310400634765625	0		1.57656103515625	-0.6619727172851563	0		3.252373779296875	-0.011227443695068359	0		4.78927490234375	0.12132142639160157	0		5.61597314453125	0.27577801513671873	0		-0.2953490295410156	5.89153173828125	0		
-0.0028554739952087404	1.9636200368404388E-4	0		0.5323099975585938	-2.376197509765625	0		-1.00286572265625	-0.0683932647705078	0		-0.6969889526367188	-2.31569921875	0		1.570308349609375	-0.6689700927734376	0		3.25634765625	-0.006531052112579346	0		4.78510205078125	0.11396939849853516	0		5.6201142578125	0.26269619750976564	0		-0.44224234008789065	5.862619140625	0		
0.01309502124786377	0.0010476570129394531	0		0.5300130615234375	-2.37814990234375	0		-1.098046142578125	-0.07595433807373046	0		-0.7332099609375	-2.3120849609375	0		1.57018798828125	-0.6690406494140625	0		3.2611904296875	-0.013816502571105957	0		4.77994287109375	0.10568492126464844	0		5.61585400390625	0.2742210998535156	0		-0.4417894287109375	5.86272509765625	0		
-0.010041094779968262	-0.006588767051696778	0		0.5505895385742188	-2.3944208984375	0		-1.0980814208984375	-0.0758221664428711	0		-0.7225191040039063	-2.320128173828125	0		1.570109130859375	-0.6691044921875	0		3.274443603515625	0.006817039966583252	0		4.77912451171875	0.12039755249023437	0		5.6229599609375	0.27337271118164064	0		-0.2939811401367188	5.89181005859375	0		
0.018999412536621095	-0.0039482440948486325	0		0.49068798828125	-2.37660107421875	0		-1.141997314453125	-0.06912207794189452	0		-0.7565823364257812	-2.314586669921875	0		1.576167236328125	-0.662244140625	0		3.26116162109375	-0.014161765098571777	0		4.77913427734375	0.12015049743652344	0		5.6187578125	0.2868477783203125	0		-0.29362991333007815	5.89186328125	0		
-0.0047997207641601565	0.008398485183715821	0		0.5336516723632813	-2.374191650390625	0		-1.062055419921875	-0.07614388275146484	0		-0.7315867309570312	-2.30987451171875	0		1.5731173095703126	-0.6662539672851563	0		3.285275390625	-0.008618464469909668	0		4.7940498046875	0.11074940490722657	0		5.62298095703125	0.27246746826171875	0		-0.2933277282714844	5.89189697265625	0		
-0.0068986940383911136	-0.003566975116729736	0		0.5316111450195312	-2.376176025390625	0		-1.1108372802734374	-0.06443194580078125	0		-0.7336251831054688	-2.31181689453125	0		1.5701195068359375	-0.6692587280273438	0		3.256356689453125	-0.007323573112487793	0		4.77924365234375	0.11980166625976563	0		5.6158935546875	0.2723980712890625	0		-0.42634335327148437	5.87273828125	0		
0.015151825904846192	-0.006876762866973877	0		0.5296240844726563	-2.378168212890625	0		-1.077802978515625	-0.06886782836914063	0		-0.7356107788085937	-2.313780517578125	0		1.5701983642578126	-0.6693021850585937	0		3.28136572265625	-0.013747986793518066	0		4.78933935546875	0.11954836273193359	0		5.6159599609375	0.272168212890625	0		-0.4601823120117188	5.86820751953125	0		
-0.014655891418457032	-0.001485679030418396	0		0.479812744140625	-2.370509521484375	0		-1.13476025390625	-0.07408919525146485	0		-0.72260595703125	-2.319969482421875	0		1.570309814453125	-0.6693447875976563	0		3.27226708984375	-0.02968914794921875	0		4.76435400390625	0.11180548858642578	0		5.60963623046875	0.27394308471679685	0		-0.4107919921875	5.88151806640625	0		
5.572879910469055E-4	0.003275809049606323	0		0.5546882934570313	-2.389574462890625	0		-1.0905364990234374	-0.06871945190429687	0		-0.7543759765625	-2.312556884765625	0		1.5396192626953125	-0.6569614868164062	0		3.29285107421875	0.0019794440269470213	0		4.7926904296875	0.1253559341430664	0		5.62620166015625	0.2836571044921875	0		-0.40962149047851565	5.8804755859375	0		
7.267699837684631E-4	0.003235250949859619	0		0.51901220703125	-2.378120849609375	0		-1.0903670654296875	-0.06875988006591797	0		-0.7311676635742187	-2.3099140625	0		1.57671630859375	-0.6625108032226562	0		3.256886474609375	-0.007565249919891357	0		4.77977880859375	0.11949424743652344	0		5.6234013671875	0.27157217407226564	0		-0.2922835388183594	5.89182373046875	0		
0.01793097686767578	0.003953815937042237	0		0.5322435302734375	-2.3763447265625	0		-1.0672042236328125	-0.0711294937133789	0		-0.7329903564453125	-2.311937744140625	0		1.5708162841796875	-0.6694666137695312	0		3.28606201171875	-0.00899379825592041	0		4.785873046875	0.11239087677001953	0		5.62353857421875	0.2715421142578125	0		-0.4253997802734375	5.87260595703125	0		
-0.030947538375854493	-0.002425358057022095	0		0.5403284912109375	-2.387501708984375	0		-1.073921142578125	-0.06609786987304687	0		-0.7008533325195313	-2.319437744140625	0		1.5710361328125	-0.6695042724609375	0		3.257291748046875	-0.00761585283279419	0		4.77610009765625	0.11352272796630859	0		5.62369140625	0.27154571533203126	0		-0.4252454833984375	5.87254833984375	0		
0.016225627899169922	-0.007129216194152832	0		0.5405936889648437	-2.387552734375	0		-1.0968228759765626	-0.07585440826416015	0		-0.7565563354492187	-2.3167373046875	0		1.57127783203125	-0.6695413208007812	0		3.272646484375	0.0011634520292282105	0		4.78041259765625	0.11947415161132813	0		5.61672607421875	0.27181329345703126	0		-0.42509347534179687	5.87248388671875	0		
-0.003315644979476929	0.008081236839294433	0		0.5179830322265625	-2.38029150390625	0		-1.0935159912109376	-0.07197701263427735	0		-0.7322000122070312	-2.31214208984375	0		1.5745809326171876	-0.6666189575195313	0		3.262678955078125	-0.014705576896667481	0		4.78066162109375	0.11949182891845703	0		5.6240380859375	0.27162847900390624	0		-0.2916656799316406	5.89158837890625	0		
0.023827171325683592	-0.0013531980514526368	0		0.5442542724609375	-2.383702880859375	0		-1.1091484375	-0.0648452377319336	0		-0.7668422241210937	-2.308742919921875	0		1.574862548828125	-0.6666539916992188	0		3.28702783203125	-0.009037144660949707	0		4.79092724609375	0.11938189697265625	0		5.62423046875	0.27170062255859373	0		-0.29151092529296874	5.89151708984375	0		
-8.729040026664734E-4	-7.824499905109406E-5	0		0.5336846923828125	-2.37660888671875	0		-1.0728802490234375	-0.06642776489257812	0		-0.6955987548828125	-2.31579638671875	0		1.57211962890625	-0.6696470947265625	0		3.258328369140625	-0.007639349937438965	0		4.78120947265625	0.11955142211914062	0		5.62443408203125	0.2717844848632813	0		-0.4255973205566406	5.87427783203125	0		
0.012378981590270996	-0.003323585033416748	0		0.53200146484375	-2.378638427734375	0		-1.1126220703125	-0.0689720687866211	0		-0.7342661743164063	-2.316346435546875	0		1.572427734375	-0.6696822509765625	0		3.287606201171875	-0.009034955978393554	0		4.77741943359375	0.11363871002197265	0		5.617513671875	0.27210382080078127	0		-0.424453857421875	5.87218701171875	0		
-0.02627892875671387	1.4004500210285187E-4	0		0.5251417846679688	-2.39359912109375	0		-1.095420166015625	-0.07629293060302735	0		-0.7199790649414063	-2.320619384765625	0		1.5727384033203125	-0.6697193603515625	0		3.274618896484375	-0.029859325408935548	0		4.77668798828125	0.11167819213867188	0		5.63196044921875	0.2665126037597656	0		-0.40816387939453125	5.87989208984375	0		
0.00305359411239624	0.002678030014038086	0		0.521681640625	-2.378603515625	0		-1.1250128173828124	-0.06797043609619141	0		-0.7535737915039062	-2.315235595703125	0		1.5821795654296875	-0.6598823852539063	0		3.295347412109375	0.0018549590110778808	0		4.7810615234375	0.11763841247558594	0		5.61444970703125	0.28617898559570315	0		-0.40797006225585936	5.87981884765625	0		
